<svg width="72" height="72" viewBox="0 0 72 72" fill="none" xmlns="http://www.w3.org/2000/svg">
<path d="M61.4558 10.5441C54.6563 3.7447 45.6159 0 36 0C26.3839 0 17.3434 3.7447 10.5441 10.5441C3.74456 17.3436 0 26.3841 0 36C0 45.6159 3.74456 54.6563 10.5441 61.4558C17.3436 68.2553 26.3839 72 36 72C45.6159 72 54.6563 68.2553 61.4558 61.4558C68.2553 54.6563 72 45.6159 72 36C72 26.3841 68.2553 17.3437 61.4558 10.5441ZM36 67.7812C18.4757 67.7812 4.21875 53.5243 4.21875 36C4.21875 18.4757 18.4757 4.21875 36 4.21875C53.5243 4.21875 67.7812 18.4757 67.7812 36C67.7812 53.5243 53.5243 67.7812 36 67.7812Z" fill="#FF6827"/>
<path d="M38.8311 45.3429H32.7306L32.2557 14H39.3425L38.8311 45.3429ZM32 54.8807C32 53.9809 32.3288 53.2311 32.9863 52.6312C33.6682 52.0114 34.6667 51.7014 35.9817 51.7014C37.2968 51.7014 38.2953 52.0114 38.9772 52.6312C39.6591 53.2311 40 53.9809 40 54.8807C40 55.7805 39.6591 56.5303 38.9772 57.1302C38.2953 57.7101 37.2968 58 35.9817 58C34.6667 58 33.6682 57.7101 32.9863 57.1302C32.3288 56.5303 32 55.7805 32 54.8807Z" fill="#FF6827"/>
</svg>
