<svg width="72" height="72" viewBox="0 0 72 72" fill="none" xmlns="http://www.w3.org/2000/svg">
<g clip-path="url(#clip0)">
<path d="M61.4558 10.5441C54.6563 3.7447 45.6159 0 36 0C26.3839 0 17.3434 3.7447 10.5441 10.5441C3.74456 17.3436 0 26.3841 0 36C0 45.6159 3.74456 54.6563 10.5441 61.4558C17.3436 68.2553 26.3839 72 36 72C45.6159 72 54.6563 68.2553 61.4558 61.4558C68.2553 54.6563 72 45.6159 72 36C72 26.3841 68.2553 17.3437 61.4558 10.5441ZM36 67.7812C18.4757 67.7812 4.21875 53.5243 4.21875 36C4.21875 18.4757 18.4757 4.21875 36 4.21875C53.5243 4.21875 67.7812 18.4757 67.7812 36C67.7812 53.5243 53.5243 67.7812 36 67.7812Z" fill="#1BA95C"/>
<path d="M53.1998 24.4496C52.3762 23.6261 51.0405 23.6261 50.2169 24.4498L31.5899 43.0768L21.7845 33.2715C20.9609 32.4478 19.6252 32.4478 18.8014 33.2715C17.9776 34.0951 17.9776 35.4308 18.8014 36.2545L30.0983 47.5514C30.5101 47.9633 31.05 48.1691 31.5897 48.1691C32.1294 48.1691 32.6694 47.9631 33.0812 47.5514L53.1998 27.4327C54.0236 26.6091 54.0236 25.2734 53.1998 24.4496Z" fill="#1BA95C"/>
</g>
<defs>
<clipPath id="clip0">
<rect width="72" height="72" fill="white" transform="matrix(1 0 0 -1 0 72)"/>
</clipPath>
</defs>
</svg>
